<?xml version="1.0" encoding="UTF-8"?>
<!DOCTYPE svg PUBLIC "-//W3C//DTD SVG 1.1//EN" "http://www.w3.org/Graphics/SVG/1.1/DTD/svg11.dtd">
<svg version="1.2" width="59mm" height="48mm" viewBox="0 0 5900 4800" preserveAspectRatio="xMidYMid" fill-rule="evenodd" stroke-width="28.222" stroke-linejoin="round" xmlns="http://www.w3.org/2000/svg" xmlns:ooo="http://xml.openoffice.org/svg/export" xmlns:xlink="http://www.w3.org/1999/xlink" xmlns:presentation="http://sun.com/xmlns/staroffice/presentation" xmlns:smil="http://www.w3.org/2001/SMIL20/" xmlns:anim="urn:oasis:names:tc:opendocument:xmlns:animation:1.0" xml:space="preserve">
 <defs class="ClipPathGroup">
  <clipPath id="presentation_clip_path" clipPathUnits="userSpaceOnUse">
   <rect x="0" y="0" width="5900" height="4800"/>
  </clipPath>
  <clipPath id="presentation_clip_path_shrink" clipPathUnits="userSpaceOnUse">
   <rect x="5" y="4" width="5889" height="4791"/>
  </clipPath>
 </defs>
 <defs class="TextShapeIndex">
  <g ooo:slide="id1" ooo:id-list="id3 id4 id5 id6 id7 id8"/>
 </defs>
 <defs class="EmbeddedBulletChars">
  <g id="bullet-char-template-57356" transform="scale(0.00048828125,-0.00048828125)">
   <path d="M 580,1141 L 1163,571 580,0 -4,571 580,1141 Z"/>
  </g>
  <g id="bullet-char-template-57354" transform="scale(0.00048828125,-0.00048828125)">
   <path d="M 8,1128 L 1137,1128 1137,0 8,0 8,1128 Z"/>
  </g>
  <g id="bullet-char-template-10146" transform="scale(0.00048828125,-0.00048828125)">
   <path d="M 174,0 L 602,739 174,1481 1456,739 174,0 Z M 1358,739 L 309,1346 659,739 1358,739 Z"/>
  </g>
  <g id="bullet-char-template-10132" transform="scale(0.00048828125,-0.00048828125)">
   <path d="M 2015,739 L 1276,0 717,0 1260,543 174,543 174,936 1260,936 717,1481 1274,1481 2015,739 Z"/>
  </g>
  <g id="bullet-char-template-10007" transform="scale(0.00048828125,-0.00048828125)">
   <path d="M 0,-2 C -7,14 -16,27 -25,37 L 356,567 C 262,823 215,952 215,954 215,979 228,992 255,992 264,992 276,990 289,987 310,991 331,999 354,1012 L 381,999 492,748 772,1049 836,1024 860,1049 C 881,1039 901,1025 922,1006 886,937 835,863 770,784 769,783 710,716 594,584 L 774,223 C 774,196 753,168 711,139 L 727,119 C 717,90 699,76 672,76 641,76 570,178 457,381 L 164,-76 C 142,-110 111,-127 72,-127 30,-127 9,-110 8,-76 1,-67 -2,-52 -2,-32 -2,-23 -1,-13 0,-2 Z"/>
  </g>
  <g id="bullet-char-template-10004" transform="scale(0.00048828125,-0.00048828125)">
   <path d="M 285,-33 C 182,-33 111,30 74,156 52,228 41,333 41,471 41,549 55,616 82,672 116,743 169,778 240,778 293,778 328,747 346,684 L 369,508 C 377,444 397,411 428,410 L 1163,1116 C 1174,1127 1196,1133 1229,1133 1271,1133 1292,1118 1292,1087 L 1292,965 C 1292,929 1282,901 1262,881 L 442,47 C 390,-6 338,-33 285,-33 Z"/>
  </g>
  <g id="bullet-char-template-9679" transform="scale(0.00048828125,-0.00048828125)">
   <path d="M 813,0 C 632,0 489,54 383,161 276,268 223,411 223,592 223,773 276,916 383,1023 489,1130 632,1184 813,1184 992,1184 1136,1130 1245,1023 1353,916 1407,772 1407,592 1407,412 1353,268 1245,161 1136,54 992,0 813,0 Z"/>
  </g>
  <g id="bullet-char-template-8226" transform="scale(0.00048828125,-0.00048828125)">
   <path d="M 346,457 C 273,457 209,483 155,535 101,586 74,649 74,723 74,796 101,859 155,911 209,963 273,989 346,989 419,989 480,963 531,910 582,859 608,796 608,723 608,648 583,586 532,535 482,483 420,457 346,457 Z"/>
  </g>
  <g id="bullet-char-template-8211" transform="scale(0.00048828125,-0.00048828125)">
   <path d="M -4,459 L 1135,459 1135,606 -4,606 -4,459 Z"/>
  </g>
  <g id="bullet-char-template-61548" transform="scale(0.00048828125,-0.00048828125)">
   <path d="M 173,740 C 173,903 231,1043 346,1159 462,1274 601,1332 765,1332 928,1332 1067,1274 1183,1159 1299,1043 1357,903 1357,740 1357,577 1299,437 1183,322 1067,206 928,148 765,148 601,148 462,206 346,322 231,437 173,577 173,740 Z"/>
  </g>
 </defs>
 <g>
  <g id="id2" class="Master_Slide">
   <g id="bg-id2" class="Background"/>
   <g id="bo-id2" class="BackgroundObjects"/>
  </g>
 </g>
 <g class="SlideGroup">
  <g>
   <g id="container-id1">
    <g id="id1" class="Slide" clip-path="url(#presentation_clip_path)">
     <g class="Page">
      <g id="bg-id1" class="Background"/>
      <g class="com.sun.star.drawing.LineShape">
       <g id="id3">
        <rect class="BoundingBox" stroke="none" fill="none" x="1600" y="850" width="2701" height="101"/>
        <path fill="none" stroke="rgb(255,255,255)" stroke-width="100" stroke-linejoin="miter" d="M 1600,900 L 1700,900"/>
        <path fill="none" stroke="rgb(255,255,255)" stroke-width="100" stroke-linejoin="miter" d="M 1800,900 L 1900,900"/>
        <path fill="none" stroke="rgb(255,255,255)" stroke-width="100" stroke-linejoin="miter" d="M 2000,900 L 2100,900"/>
        <path fill="none" stroke="rgb(255,255,255)" stroke-width="100" stroke-linejoin="miter" d="M 2200,900 L 2300,900"/>
        <path fill="none" stroke="rgb(255,255,255)" stroke-width="100" stroke-linejoin="miter" d="M 2400,900 L 2500,900"/>
        <path fill="none" stroke="rgb(255,255,255)" stroke-width="100" stroke-linejoin="miter" d="M 2600,900 L 2700,900"/>
        <path fill="none" stroke="rgb(255,255,255)" stroke-width="100" stroke-linejoin="miter" d="M 2800,900 L 2900,900"/>
        <path fill="none" stroke="rgb(255,255,255)" stroke-width="100" stroke-linejoin="miter" d="M 3000,900 L 3100,900"/>
        <path fill="none" stroke="rgb(255,255,255)" stroke-width="100" stroke-linejoin="miter" d="M 3200,900 L 3300,900"/>
        <path fill="none" stroke="rgb(255,255,255)" stroke-width="100" stroke-linejoin="miter" d="M 3400,900 L 3500,900"/>
        <path fill="none" stroke="rgb(255,255,255)" stroke-width="100" stroke-linejoin="miter" d="M 3600,900 L 3700,900"/>
        <path fill="none" stroke="rgb(255,255,255)" stroke-width="100" stroke-linejoin="miter" d="M 3800,900 L 3900,900"/>
        <path fill="none" stroke="rgb(255,255,255)" stroke-width="100" stroke-linejoin="miter" d="M 4000,900 L 4100,900"/>
        <path fill="none" stroke="rgb(255,255,255)" stroke-width="100" stroke-linejoin="miter" d="M 4200,900 L 4300,900"/>
       </g>
      </g>
      <g class="com.sun.star.drawing.CustomShape">
       <g id="id4">
        <rect class="BoundingBox" stroke="none" fill="none" x="9" y="6" width="2084" height="1646"/>
        <path fill="none" stroke="rgb(255,255,255)" stroke-width="100" stroke-linejoin="miter" d="M 1050,100 L 2001,1601 100,1601 1050,100 Z"/>
       </g>
      </g>
      <g class="com.sun.star.drawing.CustomShape">
       <g id="id5">
        <rect class="BoundingBox" stroke="none" fill="none" x="3809" y="6" width="2084" height="1646"/>
        <path fill="none" stroke="rgb(255,255,255)" stroke-width="100" stroke-linejoin="miter" d="M 4850,100 L 5801,1601 3900,1601 4850,100 Z"/>
       </g>
      </g>
      <g class="com.sun.star.drawing.LineShape">
       <g id="id6">
        <rect class="BoundingBox" stroke="none" fill="none" x="3456" y="1574" width="1489" height="2453"/>
        <path fill="none" stroke="rgb(255,255,255)" stroke-width="100" stroke-linejoin="miter" d="M 3500,4000 L 3550,3914"/>
        <path fill="none" stroke="rgb(255,255,255)" stroke-width="100" stroke-linejoin="miter" d="M 3601,3827 L 3651,3741"/>
        <path fill="none" stroke="rgb(255,255,255)" stroke-width="100" stroke-linejoin="miter" d="M 3702,3654 L 3752,3568"/>
        <path fill="none" stroke="rgb(255,255,255)" stroke-width="100" stroke-linejoin="miter" d="M 3802,3482 L 3853,3395"/>
        <path fill="none" stroke="rgb(255,255,255)" stroke-width="100" stroke-linejoin="miter" d="M 3903,3309 L 3953,3223"/>
        <path fill="none" stroke="rgb(255,255,255)" stroke-width="100" stroke-linejoin="miter" d="M 4004,3136 L 4054,3050"/>
        <path fill="none" stroke="rgb(255,255,255)" stroke-width="100" stroke-linejoin="miter" d="M 4105,2963 L 4155,2877"/>
        <path fill="none" stroke="rgb(255,255,255)" stroke-width="100" stroke-linejoin="miter" d="M 4205,2791 L 4256,2704"/>
        <path fill="none" stroke="rgb(255,255,255)" stroke-width="100" stroke-linejoin="miter" d="M 4306,2618 L 4357,2532"/>
        <path fill="none" stroke="rgb(255,255,255)" stroke-width="100" stroke-linejoin="miter" d="M 4407,2445 L 4457,2359"/>
        <path fill="none" stroke="rgb(255,255,255)" stroke-width="100" stroke-linejoin="miter" d="M 4508,2272 L 4558,2186"/>
        <path fill="none" stroke="rgb(255,255,255)" stroke-width="100" stroke-linejoin="miter" d="M 4609,2100 L 4659,2013"/>
        <path fill="none" stroke="rgb(255,255,255)" stroke-width="100" stroke-linejoin="miter" d="M 4709,1927 L 4760,1841"/>
        <path fill="none" stroke="rgb(255,255,255)" stroke-width="100" stroke-linejoin="miter" d="M 4810,1754 L 4860,1668"/>
       </g>
      </g>
      <g class="com.sun.star.drawing.CustomShape">
       <g id="id7">
        <rect class="BoundingBox" stroke="none" fill="none" x="1909" y="3106" width="2084" height="1646"/>
        <path fill="none" stroke="rgb(255,255,255)" stroke-width="100" stroke-linejoin="miter" d="M 2950,3200 L 3901,4701 2000,4701 2950,3200 Z"/>
       </g>
      </g>
      <g class="com.sun.star.drawing.LineShape">
       <g id="id8">
        <rect class="BoundingBox" stroke="none" fill="none" x="956" y="1574" width="1489" height="2453"/>
        <path fill="none" stroke="rgb(255,255,255)" stroke-width="100" stroke-linejoin="miter" d="M 2400,4000 L 2350,3914"/>
        <path fill="none" stroke="rgb(255,255,255)" stroke-width="100" stroke-linejoin="miter" d="M 2299,3827 L 2249,3741"/>
        <path fill="none" stroke="rgb(255,255,255)" stroke-width="100" stroke-linejoin="miter" d="M 2198,3654 L 2148,3568"/>
        <path fill="none" stroke="rgb(255,255,255)" stroke-width="100" stroke-linejoin="miter" d="M 2098,3482 L 2047,3395"/>
        <path fill="none" stroke="rgb(255,255,255)" stroke-width="100" stroke-linejoin="miter" d="M 1997,3309 L 1947,3223"/>
        <path fill="none" stroke="rgb(255,255,255)" stroke-width="100" stroke-linejoin="miter" d="M 1896,3136 L 1846,3050"/>
        <path fill="none" stroke="rgb(255,255,255)" stroke-width="100" stroke-linejoin="miter" d="M 1795,2963 L 1745,2877"/>
        <path fill="none" stroke="rgb(255,255,255)" stroke-width="100" stroke-linejoin="miter" d="M 1695,2791 L 1644,2704"/>
        <path fill="none" stroke="rgb(255,255,255)" stroke-width="100" stroke-linejoin="miter" d="M 1594,2618 L 1543,2532"/>
        <path fill="none" stroke="rgb(255,255,255)" stroke-width="100" stroke-linejoin="miter" d="M 1493,2445 L 1443,2359"/>
        <path fill="none" stroke="rgb(255,255,255)" stroke-width="100" stroke-linejoin="miter" d="M 1392,2272 L 1342,2186"/>
        <path fill="none" stroke="rgb(255,255,255)" stroke-width="100" stroke-linejoin="miter" d="M 1291,2100 L 1241,2013"/>
        <path fill="none" stroke="rgb(255,255,255)" stroke-width="100" stroke-linejoin="miter" d="M 1191,1927 L 1140,1841"/>
        <path fill="none" stroke="rgb(255,255,255)" stroke-width="100" stroke-linejoin="miter" d="M 1090,1754 L 1040,1668"/>
       </g>
      </g>
     </g>
    </g>
   </g>
  </g>
 </g>
</svg>